<?xml version="1.0" standalone="no"?>
<!DOCTYPE svg PUBLIC "-//W3C//DTD SVG 20010904//EN"
 "http://www.w3.org/TR/2001/REC-SVG-20010904/DTD/svg10.dtd">
<svg version="1.0" xmlns="http://www.w3.org/2000/svg"
 width="800.000000pt" height="800.000000pt" viewBox="0 0 800.000000 800.000000"
 preserveAspectRatio="xMidYMid meet">
<metadata>
Created by potrace 1.15, written by Peter Selinger 2001-2017
</metadata>
<g transform="translate(0.000000,800.000000) scale(0.100000,-0.100000)"
fill="#000000" stroke="none">
<path d="M3887 7320 c-4 -14 -20 -142 -37 -285 -17 -143 -33 -279 -36 -301
l-6 -42 -86 -6 c-647 -49 -1227 -298 -1677 -719 l-70 -65 -62 60 c-45 45 -66
59 -79 54 -14 -5 -5 -18 51 -69 l69 -63 -84 -95 c-410 -465 -643 -1015 -685
-1625 l-7 -100 -324 -39 c-178 -22 -324 -42 -324 -45 0 -4 46 -12 103 -18 56
-7 202 -24 323 -39 l222 -26 7 -101 c43 -614 280 -1172 693 -1633 l90 -100
-91 -91 c-71 -71 -87 -92 -74 -97 12 -5 39 18 100 81 l84 89 79 -71 c216 -192
407 -320 654 -437 306 -146 607 -227 955 -257 71 -6 131 -12 132 -14 1 -1 19
-137 38 -302 36 -303 43 -349 50 -343 2 2 19 139 39 304 20 165 39 310 41 322
4 19 14 22 82 27 43 4 132 13 198 22 523 66 1054 308 1440 657 44 40 88 78 98
86 15 12 27 5 108 -69 l91 -83 31 34 c19 19 21 24 7 11 l-26 -22 -82 83 c-45
45 -82 86 -82 90 0 3 32 42 71 84 387 424 649 1027 684 1574 3 52 8 108 11
125 l4 31 318 38 c174 21 320 41 324 44 4 4 -137 24 -315 45 -177 21 -324 40
-326 42 -2 2 -8 55 -12 117 -43 599 -285 1161 -703 1631 l-59 67 53 54 c48 48
58 75 27 75 -6 0 -34 -23 -62 -50 l-52 -51 -69 64 c-449 412 -1004 655 -1619
708 -71 6 -133 14 -136 17 -3 4 -20 133 -38 287 -19 154 -37 298 -41 320 -6
36 -8 37 -13 15z m168 -1571 c80 -657 145 -1203 145 -1212 0 -9 -62 -64 -137
-123 -76 -59 -144 -111 -150 -117 -10 -7 -13 262 -12 1339 1 742 3 1340 5
1329 2 -11 69 -558 149 -1216z m-266 799 c0 -18 -9 -94 -18 -168 -17 -123 -19
-129 -20 -68 -1 66 -10 84 -34 75 -15 -6 -1 -238 15 -248 7 -4 3 -61 -11 -171
-12 -91 -21 -169 -21 -175 0 -6 -30 -13 -66 -17 -73 -7 -307 -65 -366 -90 -21
-9 -41 -16 -46 -16 -16 0 -146 310 -135 321 17 17 -70 223 -95 227 -14 2 -29
26 -54 85 l-35 82 25 13 c44 25 285 100 402 126 139 31 301 54 393 55 l67 1
-1 -32z m438 17 c161 -21 322 -58 483 -111 74 -24 140 -47 146 -52 15 -9 -52
-182 -70 -182 -15 0 -98 -212 -87 -223 5 -5 -20 -80 -56 -171 l-65 -162 -80
28 c-103 36 -213 64 -318 79 -47 7 -87 14 -89 16 -3 2 -14 82 -26 177 -16 132
-18 176 -9 182 7 6 15 55 19 127 6 114 6 117 -14 117 -18 0 -21 -6 -21 -44 0
-88 -16 -53 -29 62 -7 64 -15 129 -18 145 l-5 27 60 0 c34 0 114 -7 179 -15z
m822 -248 c226 -113 430 -253 591 -404 l81 -76 -67 -68 c-61 -61 -70 -67 -84
-54 -14 13 -25 6 -98 -68 -45 -45 -82 -86 -82 -91 0 -5 7 -14 15 -20 13 -9 -5
-32 -109 -135 l-124 -124 -89 76 c-113 97 -258 193 -379 252 -75 37 -94 50
-89 63 98 264 283 712 294 712 7 0 70 -28 140 -63z m-2020 -302 c85 -196 152
-358 149 -361 -3 -2 -41 -22 -85 -43 -149 -72 -297 -172 -418 -282 l-56 -52
-124 123 c-109 108 -123 126 -111 140 12 13 3 27 -70 104 -79 84 -86 88 -102
73 -15 -16 -12 -22 58 -95 41 -42 10 -13 -70 66 l-145 143 60 55 c101 93 215
182 330 259 112 75 388 224 415 225 10 0 64 -112 169 -355z m-930 -279 c53
-54 62 -67 52 -80 -10 -12 3 -29 76 -100 75 -72 90 -83 102 -71 12 12 32 -3
132 -98 65 -61 121 -117 124 -125 3 -8 -21 -43 -55 -80 -89 -99 -177 -226
-250 -365 l-65 -123 -362 144 c-204 81 -363 149 -363 156 0 7 31 73 68 148 69
136 165 290 250 403 61 80 212 255 221 255 4 0 35 -29 70 -64z m3736 -23 c99
-112 197 -244 269 -358 78 -123 190 -345 179 -355 -7 -8 -700 -310 -709 -310
-2 0 -24 40 -49 90 -80 160 -154 271 -272 406 l-52 60 125 125 c100 99 126
121 134 109 8 -12 26 2 97 72 76 76 85 89 73 103 -12 14 -5 24 51 81 35 35 67
64 70 64 4 0 42 -39 84 -87z m-2149 -35 c-4 -35 -10 -79 -13 -99 l-5 -36 -84
-17 c-69 -13 -204 -51 -261 -73 -8 -3 -24 19 -44 63 -56 125 -63 108 60 148
112 36 275 74 325 75 l29 1 -7 -62z m557 41 c84 -16 303 -82 314 -93 3 -3 -14
-49 -56 -158 l-10 -26 -85 29 c-47 17 -132 40 -188 52 l-103 22 -7 65 c-4 36
-9 80 -12 98 -4 29 -2 32 21 32 13 0 71 -9 126 -21z m-1000 -197 c28 -63 34
-88 25 -91 -82 -27 -309 -169 -400 -251 l-58 -51 -75 58 c-41 31 -75 61 -75
65 0 14 155 140 250 203 91 61 264 155 285 155 6 0 27 -40 48 -88z m1445 44
c48 -24 128 -71 177 -103 89 -59 265 -200 265 -212 -1 -3 -35 -32 -76 -63
l-75 -57 -82 66 c-101 82 -187 138 -294 192 -46 23 -83 43 -83 44 0 2 12 32
26 68 15 35 30 74 35 87 5 12 11 22 14 22 3 0 45 -20 93 -44z m-1028 -83 c0
-10 -7 -72 -15 -138 -8 -65 -15 -121 -15 -122 0 -2 -8 -3 -17 -3 -10 0 -54
-11 -97 -24 -44 -14 -83 -23 -88 -20 -5 3 -6 27 -2 53 7 58 -6 89 -46 103 -24
8 -50 48 -50 75 0 9 82 37 185 64 131 33 145 35 145 12z m552 2 c89 -19 258
-74 258 -84 0 -5 -5 -22 -11 -39 -9 -28 -13 -30 -44 -25 -29 5 -39 0 -65 -25
-16 -17 -30 -40 -30 -51 0 -31 21 -70 42 -76 10 -4 18 -11 18 -17 0 -5 -7 -8
-15 -4 -12 4 -156 48 -201 61 -6 2 -16 54 -23 116 -7 63 -15 124 -18 137 -6
26 -5 26 89 7z m-917 -167 c-20 -15 -25 -28 -25 -63 0 -55 35 -88 89 -83 60 5
44 -16 -48 -61 -49 -24 -128 -72 -175 -107 l-86 -64 -93 72 c-50 39 -98 76
-105 83 -24 21 213 195 369 270 l74 35 13 -31 c12 -28 11 -32 -13 -51z m1298
31 c157 -80 357 -230 337 -254 -6 -7 -53 -45 -105 -85 l-93 -71 -54 43 c-59
48 -146 103 -220 139 -55 26 -60 42 -19 59 39 16 58 62 43 102 -9 24 -8 38 5
69 8 21 17 39 19 39 3 0 41 -19 87 -41z m-1908 -214 l57 -74 -52 -58 c-65 -73
-158 -212 -207 -312 -21 -42 -39 -78 -40 -80 -2 -3 -171 57 -182 65 -8 7 88
186 150 279 68 102 193 255 208 255 5 0 35 -34 66 -75z m2565 -12 c41 -49 98
-126 128 -172 69 -105 155 -272 145 -282 -5 -4 -45 -22 -89 -42 l-82 -35 -45
92 c-56 112 -126 219 -205 311 l-59 70 59 73 c33 39 63 72 67 72 5 0 41 -39
81 -87z m-1630 3 c0 -28 -14 -41 -55 -50 -94 -23 -264 -108 -360 -182 -46 -34
-47 -35 -72 -18 l-26 17 24 19 c105 85 286 185 303 168 15 -15 23 -12 29 9 3
14 24 26 68 40 83 26 89 26 89 -3z m647 -3 c63 -21 83 -31 83 -45 0 -20 15
-24 25 -8 13 20 295 -150 295 -178 0 -4 -9 -13 -20 -20 -18 -11 -29 -6 -98 42
-95 66 -192 115 -298 150 -75 25 -82 29 -86 56 -3 17 0 30 6 30 5 0 47 -12 93
-27z m-695 -641 c163 -128 299 -236 301 -240 2 -4 1 -55 -2 -115 l-6 -107
-525 526 -525 526 230 -179 c127 -98 364 -284 527 -411z m1371 517 c-26 -34
-213 -271 -414 -528 l-366 -466 -119 -3 -119 -2 530 530 c291 291 531 530 533
530 2 0 -18 -28 -45 -61z m-1337 19 c-3 -18 -17 -130 -32 -248 -14 -118 -27
-216 -27 -216 -1 -1 -84 62 -184 141 l-182 143 72 50 c80 55 171 103 262 138
85 33 97 32 91 -8z m708 -10 c127 -52 298 -161 279 -178 -52 -50 -347 -270
-353 -263 -6 7 -60 432 -60 471 0 18 41 9 134 -30z m-1477 -65 c37 -48 74 -95
81 -104 11 -16 4 -29 -50 -103 -34 -46 -81 -120 -103 -164 -37 -71 -43 -78
-63 -71 -12 5 -22 15 -22 24 0 29 -46 65 -84 65 -19 0 -38 -5 -42 -11 -6 -11
-52 -4 -67 10 -19 18 117 246 221 373 31 37 57 68 58 68 1 0 33 -39 71 -87z
m2335 -107 c56 -84 138 -235 138 -254 0 -5 -17 -16 -38 -24 -36 -14 -38 -14
-55 9 -14 18 -28 23 -62 23 -55 0 -89 -36 -83 -87 2 -18 2 -33 0 -33 -2 0 -12
21 -24 46 -30 68 -83 156 -139 230 -27 36 -49 69 -49 74 0 6 35 55 78 110 l77
100 48 -53 c27 -28 76 -92 109 -141z m1167 48 c51 -140 89 -276 116 -415 26
-136 53 -374 43 -384 -3 -4 -75 2 -159 11 -83 10 -148 19 -143 20 5 1 30 5 57
9 38 5 47 10 47 26 0 10 -6 19 -12 19 -85 -3 -222 -20 -227 -29 -5 -7 -62 -3
-183 11 l-177 22 -6 51 c-12 93 -45 232 -79 333 l-34 100 161 70 c89 38 164
66 165 61 6 -15 20 -11 129 33 79 32 102 46 98 58 -4 12 15 25 77 52 46 20 86
36 90 37 3 1 20 -38 37 -85z m-4772 34 c46 -18 83 -38 83 -44 0 -16 206 -98
225 -90 8 3 86 -23 172 -57 l158 -62 -37 -110 c-35 -105 -78 -302 -78 -356 l0
-25 -177 -21 c-107 -12 -180 -17 -184 -11 -4 6 -174 26 -241 28 -5 0 -8 -9 -8
-20 0 -16 10 -20 63 -26 l62 -8 -140 -17 c-201 -26 -182 -30 -178 44 12 197
60 448 123 637 48 145 58 170 67 170 4 0 45 -15 90 -32z m1438 -212 c-101
-138 -157 -243 -199 -366 -20 -61 -30 -76 -51 -83 -14 -5 -29 -6 -32 -3 -4 3
7 45 23 94 23 68 33 86 47 84 19 -3 23 18 7 34 -11 11 58 138 129 235 l45 60
20 -21 c15 -14 18 -24 11 -34z m1885 -53 c27 -40 63 -102 81 -138 26 -54 30
-67 19 -80 -11 -14 -10 -17 8 -22 17 -4 27 -23 46 -82 13 -42 23 -78 21 -79
-2 -2 -17 -1 -33 2 -26 6 -31 15 -52 83 -29 94 -97 228 -159 314 -45 61 -47
66 -33 87 14 22 16 22 34 5 11 -10 41 -50 68 -90z m-1710 -148 c127 -162 139
-180 118 -183 -236 -32 -474 -56 -477 -49 -5 12 36 121 77 202 32 66 132 219
138 213 1 -2 66 -84 144 -183z m1623 113 c55 -77 112 -190 143 -282 13 -38 23
-70 21 -71 -1 -1 -115 12 -253 29 l-251 31 140 178 c77 97 144 177 148 177 4
0 28 -28 52 -62z m-2409 -142 c-18 -55 -40 -140 -49 -187 l-17 -87 -67 -7
c-36 -3 -81 -9 -98 -12 -29 -5 -33 -3 -33 17 0 63 79 371 111 432 8 15 18 13
97 -19 l89 -35 -33 -102z m3190 45 c30 -97 51 -187 71 -304 l6 -39 -58 8 c-32
3 -78 9 -102 13 l-44 6 -18 90 c-10 50 -29 126 -43 170 -14 44 -26 84 -27 90
-1 11 162 86 173 79 4 -3 23 -54 42 -113z m-3089 30 c14 -6 20 -18 21 -45 2
-77 85 -108 141 -53 18 16 33 23 41 18 10 -6 8 -23 -12 -82 -13 -41 -28 -91
-31 -111 -4 -21 -12 -38 -19 -38 -6 0 -67 -7 -135 -15 -68 -9 -126 -13 -128
-11 -13 13 80 347 96 345 3 0 15 -4 26 -8z m2885 -169 c11 -42 24 -99 29 -126
l9 -48 -47 6 c-25 3 -88 11 -138 17 l-93 12 -10 41 c-6 22 -19 67 -30 98 -19
58 -16 74 10 57 29 -17 80 -10 105 16 14 13 25 31 25 40 0 9 18 23 43 34 l42
18 18 -44 c9 -25 26 -79 37 -121z m-1916 -239 l116 -148 -664 -3 c-366 -1
-966 -1 -1335 0 l-671 3 1198 146 c658 81 1207 147 1219 148 17 1 48 -33 137
-146z m3391 -179 c-43 -8 -2419 -294 -2420 -291 -1 1 -52 66 -113 144 -62 78
-112 145 -112 148 0 3 600 4 1333 4 732 -1 1323 -3 1312 -5z m-3005 -7 c0 -1
-235 -236 -521 -522 l-521 -520 152 195 c83 107 267 342 408 522 l257 328 113
0 c61 0 112 -1 112 -3z m1030 -975 c79 -80 92 -95 50 -63 -30 24 -272 212
-537 420 l-483 376 0 114 0 115 433 -429 c237 -236 479 -476 537 -533z m-3415
879 c77 -10 126 -19 109 -20 -64 -2 -94 -13 -94 -33 0 -21 -12 -20 180 -3 36
4 67 10 70 15 3 4 84 -1 181 -13 l177 -21 6 -61 c8 -77 58 -284 86 -354 11
-30 19 -58 18 -63 -6 -18 -300 -138 -323 -132 -13 3 -62 -11 -121 -34 -75 -30
-100 -45 -102 -60 -2 -14 -26 -29 -85 -55 -45 -19 -85 -32 -89 -28 -11 10 -87
240 -113 341 -34 134 -63 300 -70 405 -3 50 -8 100 -11 113 -5 27 -6 27 181 3z
m5031 -73 c-15 -208 -66 -449 -136 -653 -23 -66 -44 -122 -46 -124 -8 -8 -174
62 -174 74 0 17 -205 99 -227 91 -10 -4 -80 19 -172 55 -86 34 -157 63 -158
64 -1 0 16 56 37 123 22 67 50 177 62 245 l21 124 176 21 c99 12 178 17 181
12 5 -9 43 -14 173 -25 61 -5 67 -4 67 14 0 21 -24 30 -85 32 -39 1 188 35
254 38 l34 1 -7 -92z m-4230 -24 l62 -6 17 -87 c9 -47 30 -128 47 -179 16 -52
28 -95 26 -96 -3 -3 -147 -66 -165 -73 -22 -9 -123 351 -123 437 0 20 4 22 38
17 20 -3 65 -9 98 -13z m3388 -21 c-27 -158 -56 -273 -95 -379 l-20 -52 -86
34 c-47 19 -88 36 -90 38 -2 2 10 43 26 92 16 49 38 132 49 183 10 52 23 96
28 98 11 4 141 20 172 22 21 1 22 -2 16 -36z m-3141 -9 c73 -9 132 -17 133
-18 0 0 11 -39 23 -86 13 -47 25 -92 28 -101 6 -21 -32 -32 -48 -13 -6 8 -29
14 -50 14 -46 0 -79 -27 -79 -65 0 -23 -24 -45 -50 -45 -16 0 -39 59 -71 189
-29 114 -34 141 -24 141 3 0 65 -7 138 -16z m2896 -29 c-18 -98 -72 -280 -88
-298 -4 -4 -24 -1 -44 8 -28 12 -37 21 -37 40 0 13 -11 36 -24 51 -28 33 -84
38 -114 11 -10 -9 -21 -17 -24 -17 -3 0 5 30 18 68 13 37 28 86 34 109 10 41
11 42 63 48 28 3 79 10 112 14 117 16 114 17 104 -34z m-2647 -4 c18 -7 28
-23 41 -68 22 -80 105 -245 161 -321 25 -34 46 -66 46 -70 0 -5 -8 -16 -18
-26 -18 -15 -21 -12 -74 61 -69 96 -144 236 -129 241 18 6 12 29 -8 35 -14 3
-25 25 -40 74 -12 39 -21 73 -21 77 0 8 14 8 42 -3z m2303 -3 c-44 -143 -58
-176 -69 -172 -8 3 -16 -2 -19 -10 -4 -9 -2 -16 3 -16 6 0 10 -6 10 -13 0 -18
-89 -165 -141 -235 l-42 -55 -18 24 c-17 23 -17 25 8 57 82 108 144 226 184
349 13 43 29 74 38 76 32 9 50 7 46 -5z m-1893 -44 l148 -17 -28 -37 c-15 -20
-78 -102 -141 -182 l-114 -146 -22 27 c-66 80 -139 214 -174 319 -12 34 -21
65 -21 70 0 5 46 3 103 -4 56 -7 168 -20 249 -30z m1798 43 c0 -21 -60 -168
-95 -234 -47 -88 -111 -183 -124 -183 -4 0 -71 81 -149 180 -119 152 -138 180
-119 180 16 1 379 45 480 59 4 1 7 0 7 -2z m-1092 -2008 l-3 -661 -144 1183
c-79 651 -144 1194 -145 1205 -1 17 34 49 144 136 l145 114 3 -658 c1 -362 1
-956 0 -1319z m-1114 1705 c27 -53 76 -132 108 -176 l60 -78 -83 -105 -82
-105 -36 41 c-72 83 -161 216 -211 313 l-50 100 27 11 c23 9 31 8 47 -7 48
-44 136 -7 136 58 0 28 8 40 30 43 3 1 27 -42 54 -95z m2343 -11 c23 -18 74
-16 101 3 19 13 27 13 57 3 19 -7 35 -20 35 -28 0 -41 -138 -263 -233 -373
l-49 -58 -83 107 -84 107 29 32 c45 52 104 142 145 223 l37 75 14 -39 c7 -22
21 -45 31 -52z m-1528 -228 c16 -132 28 -241 26 -243 -18 -19 -272 99 -366
170 l-57 42 91 71 c49 38 131 102 181 141 50 40 92 69 94 65 1 -3 15 -114 31
-246z m834 119 c89 -70 168 -132 175 -139 26 -24 -174 -149 -321 -201 -43 -15
-80 -24 -83 -21 -6 6 42 446 51 475 3 6 7 12 10 12 4 0 79 -57 168 -126z
m-1829 -177 c30 -45 78 -108 107 -140 l51 -58 -57 -74 c-31 -41 -61 -75 -66
-75 -15 0 -139 151 -204 250 -62 93 -164 286 -155 293 3 2 43 20 89 39 l85 36
47 -94 c26 -52 72 -131 103 -177z m2935 187 c7 -6 -21 -67 -77 -168 -57 -103
-151 -234 -231 -321 l-46 -51 -57 72 c-32 39 -58 75 -58 79 0 4 27 39 59 78
74 90 169 237 207 320 l29 63 85 -34 c47 -19 87 -36 89 -38z m-3265 -91 c70
-147 179 -309 286 -426 l53 -58 -123 -124 c-108 -109 -126 -123 -140 -111 -13
12 -27 3 -104 -70 -84 -79 -88 -86 -73 -102 16 -15 22 -11 100 63 45 44 15 12
-66 -70 l-148 -150 -51 55 c-91 101 -211 254 -280 360 -69 106 -208 367 -208
392 0 8 141 74 353 165 193 84 355 153 358 153 4 0 23 -35 43 -77z m3711 -83
c181 -72 331 -132 333 -134 6 -7 -105 -228 -168 -334 -73 -123 -212 -309 -308
-412 l-69 -75 -69 67 c-60 59 -67 68 -54 83 12 14 4 26 -73 103 -68 68 -89 84
-99 74 -7 -7 -16 -12 -22 -12 -5 0 -62 52 -127 116 l-118 117 82 96 c99 117
198 268 252 383 l40 85 35 -13 c19 -7 183 -72 365 -144z m-2743 -56 c74 -54
239 -138 318 -161 30 -8 61 -20 68 -25 13 -11 17 -58 5 -58 -5 0 -45 12 -90
27 -64 20 -83 31 -83 45 0 19 -26 25 -32 7 -5 -14 -125 50 -221 119 l-79 56
22 18 c12 10 24 18 26 18 2 0 32 -21 66 -46z m1432 31 c25 -19 15 -31 -88 -99
-115 -76 -207 -121 -216 -106 -9 15 -30 5 -30 -14 0 -10 -124 -56 -151 -56 -4
0 -4 14 0 30 6 29 13 33 96 61 106 36 220 94 301 155 32 24 61 44 64 44 3 0
14 -7 24 -15z m-1522 -125 c44 -32 118 -79 164 -102 82 -42 98 -60 58 -66 -56
-8 -66 -14 -80 -47 -15 -37 -6 -80 20 -100 12 -9 12 -16 0 -43 -12 -30 -15
-31 -41 -21 -83 31 -271 153 -371 240 l-42 36 103 81 c56 44 104 81 105 81 2
1 40 -26 84 -59z m1709 -22 l103 -81 -49 -44 c-71 -63 -214 -157 -317 -209
l-88 -44 -15 37 c-14 33 -14 40 1 71 26 56 -7 122 -60 122 -41 0 -38 16 5 33
60 24 186 100 249 151 30 25 58 45 61 45 4 1 53 -36 110 -81z m-1958 -169 c92
-78 201 -149 299 -197 43 -20 78 -41 78 -47 0 -8 -59 -164 -66 -173 -5 -8
-208 102 -289 156 -105 70 -248 189 -243 203 3 8 138 118 146 119 1 0 35 -27
75 -61z m2170 4 c40 -31 73 -57 75 -59 6 -4 -88 -87 -166 -147 -135 -103 -364
-230 -381 -211 -12 14 -74 164 -70 168 2 2 42 23 89 46 104 51 223 130 310
204 36 30 66 55 68 56 2 0 35 -26 75 -57z m-1566 3 c39 -14 87 -28 106 -31 40
-8 39 -4 58 -173 6 -57 9 -106 6 -109 -11 -10 -326 72 -344 91 -2 2 4 19 12
39 12 28 21 37 39 37 30 0 66 43 66 79 0 15 -7 37 -16 49 -8 12 -12 27 -9 32
8 12 -3 14 82 -14z m854 -12 c-43 -54 -11 -134 54 -134 29 0 35 -5 48 -37 8
-21 12 -41 9 -45 -17 -17 -317 -96 -327 -86 -2 1 4 63 13 137 l17 134 90 27
c116 36 121 36 96 4z m-1638 -156 c103 -90 264 -197 384 -255 l92 -45 -18 -46
c-159 -401 -275 -682 -281 -682 -22 0 -327 163 -419 224 -100 66 -242 177
-346 270 l-50 45 67 67 c55 56 69 65 81 55 13 -10 29 3 100 76 74 76 84 90 72
103 -12 13 3 32 106 138 65 67 121 122 124 122 3 0 42 -32 88 -72z m2675 -131
c35 -35 40 -46 28 -50 -9 -4 -16 -11 -16 -17 0 -6 37 -49 82 -96 73 -76 83
-83 97 -69 14 13 12 19 -19 52 l-35 37 50 -41 c28 -23 76 -68 108 -101 l58
-59 -78 -72 c-94 -87 -266 -218 -383 -291 -105 -66 -337 -183 -352 -178 -6 2
-80 163 -164 358 l-153 354 129 67 c137 70 247 145 363 245 l71 62 86 -78 c47
-43 104 -98 128 -123z m-1973 5 c50 -17 129 -38 176 -47 l87 -17 5 -37 c3 -20
9 -64 13 -98 6 -60 6 -63 -16 -63 -82 0 -440 100 -440 123 0 25 66 177 75 173
6 -3 51 -18 100 -34z m1110 -58 c20 -47 35 -87 33 -89 -23 -22 -300 -98 -400
-110 l-57 -7 5 33 c3 19 8 63 12 99 7 61 8 65 37 71 150 36 254 64 280 75 16
7 35 13 41 14 7 0 28 -39 49 -86z m-1083 -199 c47 -13 127 -29 177 -36 50 -7
91 -17 91 -23 0 -5 9 -83 21 -174 14 -110 18 -167 11 -171 -6 -3 -14 -59 -19
-123 -7 -96 -6 -119 5 -123 25 -9 32 6 33 73 1 62 3 58 19 -63 10 -71 19 -148
19 -169 l1 -39 -97 6 c-204 14 -467 69 -667 141 -54 19 -101 37 -103 40 -9 9
62 175 75 178 18 4 102 214 91 225 -7 7 94 287 116 323 3 4 35 -3 72 -17 38
-14 107 -35 155 -48z m1210 -92 c44 -104 63 -160 56 -164 -7 -5 4 -44 33 -118
35 -88 48 -111 61 -108 13 4 25 -15 53 -80 20 -47 33 -89 28 -93 -14 -14 -212
-80 -332 -111 -142 -37 -324 -67 -455 -76 l-99 -6 6 29 c3 16 11 82 18 146 13
115 29 150 29 62 0 -44 5 -50 28 -36 16 11 5 242 -12 242 -9 0 -6 50 9 175 12
96 23 176 26 178 2 1 53 11 113 21 103 17 293 67 326 86 36 22 45 9 112 -147z"/>
</g>
</svg>
