<svg id="レイヤー_1" data-name="レイヤー 1" xmlns="http://www.w3.org/2000/svg" viewBox="0 0 259.35 259.39"><defs><style>.cls-1{font-size:28px;font-family:EditorialNew-Ultralight, Editorial New;font-weight:100;}</style></defs><text class="cls-1" transform="translate(114.51 25.93) rotate(-3.51)">C</text><text class="cls-1" transform="translate(131.59 24.78) rotate(6.21)">H</text><text class="cls-1" transform="translate(150.45 27.17) rotate(13.78)">I</text><text class="cls-1" transform="translate(158.92 29.01) rotate(20.62)">L</text><text class="cls-1" transform="translate(173.84 34.61) rotate(29.38)">L</text><text class="cls-1" transform="translate(187.77 42.32) rotate(38.72)">O</text><text class="cls-1" transform="matrix(0.65, 0.76, -0.76, 0.65, 202.08, 53.61)">U</text><text class="cls-1" transform="matrix(0.51, 0.86, -0.86, 0.51, 215.5, 69.43)">T</text><text class="cls-1" transform="translate(223.9 84.35) rotate(65.82)"> </text><text class="cls-1" transform="matrix(0.36, 0.93, -0.93, 0.36, 226.33, 89.76)"> </text><text class="cls-1" transform="translate(228.43 95.3) rotate(72.37)"> </text><text class="cls-1" transform="translate(230.47 100.63) rotate(78.73)">C</text><text class="cls-1" transform="translate(233.91 117.4) rotate(88.54)">H</text><text class="cls-1" transform="matrix(-0.1, 0.99, -0.99, -0.1, 234.06, 136.44)">I</text><text class="cls-1" transform="translate(233.38 145.06) rotate(102.8)">L</text><text class="cls-1" transform="translate(229.86 160.61) rotate(111.59)">L</text><text class="cls-1" transform="translate(224.11 175.47) rotate(120.98)">O</text><text class="cls-1" transform="translate(214.86 191.15) rotate(131.58)">U</text><text class="cls-1" transform="matrix(-0.79, 0.62, -0.62, -0.79, 200.99, 206.56)">T</text><text class="cls-1" transform="matrix(-0.85, 0.53, -0.53, -0.85, 187.32, 216.92)"> </text><text class="cls-1" transform="translate(182.3 220.05) rotate(151.29)"> </text><text class="cls-1" transform="translate(177.09 222.89) rotate(154.56)"> </text><text class="cls-1" transform="translate(172.08 225.64) rotate(160.92)">C</text><text class="cls-1" transform="matrix(-0.99, 0.16, -0.16, -0.99, 155.94, 231.32)">H</text><text class="cls-1" transform="matrix(-1, 0.03, -0.03, -1, 137.1, 234.02)">I</text><text class="cls-1" transform="translate(128.47 234.5) rotate(-174.98)">L</text><text class="cls-1" transform="translate(112.57 233.12) rotate(-166.23)">L</text><text class="cls-1" transform="translate(97.09 229.45) rotate(-156.81)">O</text><text class="cls-1" transform="translate(80.3 222.41) rotate(-146.15)">U</text><text class="cls-1" transform="translate(63.16 210.74) rotate(-135.92)">T</text><text class="cls-1" transform="matrix(-0.64, -0.77, 0.77, -0.64, 51.06, 198.6)"> </text><text class="cls-1" transform="matrix(-0.59, -0.8, 0.8, -0.59, 47.27, 194.02)"> </text><text class="cls-1" transform="matrix(-0.5, -0.86, 0.86, -0.5, 43.63, 189.64)">C</text><text class="cls-1" transform="translate(34.94 174.87) rotate(-110.26)">H</text><text class="cls-1" transform="matrix(-0.22, -0.98, 0.98, -0.22, 28.68, 156.94)">I</text><text class="cls-1" transform="matrix(-0.1, -0.99, 0.99, -0.1, 26.56, 148.54)">L</text><text class="cls-1" transform="translate(24.92 132.66) rotate(-87.25)">L</text><text class="cls-1" transform="translate(25.56 116.74) rotate(-77.9)">O</text><text class="cls-1" transform="translate(29.24 98.91) rotate(-67.18)">U</text><text class="cls-1" transform="translate(37.41 79.86) rotate(-56.88)">T</text><text class="cls-1" transform="translate(47.03 65.68) rotate(-50.65)"> </text><text class="cls-1" transform="translate(50.81 61.09) rotate(-47.41)"> </text></svg>